<?xml version="1.0" encoding="iso-8859-1"?>
<!-- Uploaded to: SVG Repo, www.svgrepo.com, Generator: SVG Repo Mixer Tools -->
<svg fill="#000000" height="800px" width="800px" version="1.1" id="Layer_1" xmlns="http://www.w3.org/2000/svg" xmlns:xlink="http://www.w3.org/1999/xlink" 
	 viewBox="0 0 512 512" xml:space="preserve">
<g>
	<g>
		<path d="M505.752,304.894L271.085,70.227c-8.331-8.331-21.839-8.331-30.17,0L6.248,304.894C2.248,308.894,0,314.321,0,319.979
			v106.667c0,19.006,22.979,28.524,36.418,15.085L256,222.149L475.582,441.73C489.021,455.17,512,445.651,512,426.645V319.979
			C512,314.321,509.752,308.894,505.752,304.894z M469.333,375.142L271.085,176.894c-8.331-8.331-21.839-8.331-30.17,0
			L42.667,375.142v-46.327L256,115.482l213.333,213.333V375.142z"/>
	</g>
</g>
</svg>